<svg width="1920" height="1080" viewBox="0 0 1920 1080" xmlns="http://www.w3.org/2000/svg"><rect width="1920" height="1080" fill="#000000"/><path d="M 0,1080 C 0,1080 0,180 0,180 C 129.95897435897436,181.76410256410256 259.9179487179487,183.52820512820512 355,165 C 450.0820512820513,146.47179487179488 510.2871794871795,107.65128205128207 611,114 C 711.7128205128205,120.34871794871793 852.9333333333334,171.86666666666665 963,202 C 1073.0666666666666,232.13333333333335 1151.9794871794873,240.8820512820513 1240,229 C 1328.0205128205127,217.1179487179487 1425.1487179487178,184.6051282051282 1540,173 C 1654.8512820512822,161.3948717948718 1787.4256410256412,170.6974358974359 1920,180 C 1920,180 1920,1080 1920,1080 Z" fill="#3d1053" opacity="0.09999999999999999"/><path d="M 0,1080 C 0,1080 0,360 0,360 C 110.83589743589746,360.0051282051282 221.67179487179493,360.0102564102564 321,358 C 420.32820512820507,355.9897435897436 508.14871794871783,351.9641025641026 615,342 C 721.8512820512822,332.0358974358974 847.7333333333333,316.1333333333334 954,329 C 1060.2666666666667,341.8666666666666 1146.9179487179485,383.5025641025641 1247,384 C 1347.0820512820515,384.4974358974359 1460.5948717948718,343.85641025641024 1575,333 C 1689.4051282051282,322.14358974358976 1804.702564102564,341.07179487179485 1920,360 C 1920,360 1920,1080 1920,1080 Z" fill="#3d1053" opacity="0.19999999999999998"/><path d="M 0,1080 C 0,1080 0,540 0,540 C 100.32051282051285,549.6128205128205 200.6410256410257,559.225641025641 310,556 C 419.3589743589743,552.774358974359 537.7564102564103,536.7102564102564 658,527 C 778.2435897435897,517.2897435897436 900.3333333333333,513.9333333333333 994,532 C 1087.6666666666667,550.0666666666667 1152.9102564102566,589.5564102564102 1246,577 C 1339.0897435897434,564.4435897435898 1460.025641025641,499.8410256410256 1577,485 C 1693.974358974359,470.1589743589744 1806.9871794871794,505.07948717948716 1920,540 C 1920,540 1920,1080 1920,1080 Z" fill="#3d1053" opacity="0.3"/><path d="M 0,1080 C 0,1080 0,720 0,720 C 82.80512820512817,690.0717948717949 165.61025641025634,660.1435897435897 264,675 C 362.38974358974366,689.8564102564103 476.3641025641026,749.4974358974359 587,773 C 697.6358974358974,796.5025641025641 804.9333333333334,783.8666666666667 938,772 C 1071.0666666666666,760.1333333333333 1229.902564102564,749.0358974358974 1330,756 C 1430.097435897436,762.9641025641026 1471.4564102564104,787.9897435897436 1560,785 C 1648.5435897435896,782.0102564102564 1784.2717948717948,751.0051282051281 1920,720 C 1920,720 1920,1080 1920,1080 Z" fill="#3d1053" opacity="0.39999999999999997"/><path d="M 0,1080 C 0,1080 0,900 0,900 C 104.22564102564101,917.9717948717948 208.45128205128202,935.9435897435898 328,930 C 447.548717948718,924.0564102564102 582.4205128205128,894.197435897436 689,889 C 795.5794871794872,883.802564102564 873.8666666666666,903.2666666666667 962,910 C 1050.1333333333334,916.7333333333333 1148.1128205128205,910.7358974358975 1249,915 C 1349.8871794871795,919.2641025641025 1453.6820512820511,933.7897435897436 1566,933 C 1678.3179487179489,932.2102564102564 1799.1589743589743,916.1051282051283 1920,900 C 1920,900 1920,1080 1920,1080 Z" fill="#3d1053" opacity="0.49999999999999994"/></svg>